<svg version="1.0" xmlns="http://www.w3.org/2000/svg" width="160" height="160" viewBox="0 0 120 120"><path d="M21.9 16.2c-.1.4-.3 2.6-.4 4.8-.1 2.2-.3 4.4-.4 5 0 .5-1.1.9-2.3.7-2.1-.2-2.3.3-2.6 5-.3 5.7-.1 5.6-7.4 5.6-3.7-.1-3.8.1-3.9 3.6-.1 4.2-.1 28.3 0 29.3.1.5 1.2.8 2.6.8 1.4 0 2.6.4 2.6 1 .1.5.3 1.4.4 2 .1.5.3 1.4.4 1.9 0 .5 1.2.8 2.6.7 2.2-.3 2.5 0 2.4 3.3 0 7.6-.1 7.6 8.7 7.6 8.1 0 8.2 0 7.5 4.2 0 .5-2.5.8-5.3.8h-5.3v8.2c-.1 6.8.2 8.3 1.4 8.4 8.4.5 14.4.2 15.1-.6.4-.6.7-2.9.5-5.3-.2-2.3 0-4.3.4-4.3.3-.1 4-.2 8.1-.3l7.5-.1.5-5.5.5-5.5 4.8-.1 4.7-.2v5.4c0 3.6.4 5.4 1.3 5.5.6.1 3.7.3 6.7.4 3 .1 6.2.3 7 .4 1.2.1 1.5 1.2 1.4 5.1-.2 4.1.1 5 1.4 5.1 9 .5 15.2.2 15.5-.6.2-.6.3-4.4.2-8.5v-7.5h-5c-5.4 0-6.9-.9-5.5-3.6.8-1.4 2.3-1.7 8-1.5 3.9.1 7.3 0 7.8-.3.4-.4.7-2.7.7-5.4 0-2.6.2-4.6.5-4.5 1.4.5 5-2.5 5-4.2 0-1.5.7-2 2.5-2 1.4 0 2.5-.6 2.6-1.3.1-1.6.1-28.7 0-30.9-.1-1.3-1-1.6-5.1-1.4-4.5.3-5.1.1-5.6-1.8-.3-1.2-.4-2.6-.3-3.2.6-3.4-.3-5.3-2.9-5.9-2.5-.5-2.8-.9-2.7-4.8.1-2.3 0-4.7-.2-5.3-.6-1.6-16.2-1.5-16.5 0 0 .6-.1 1.8-.2 2.6-.1 1.2-1.9 1.6-8.3 1.8l-8.2.3-.3 5.7c-.2 4.5-.6 5.6-1.8 5.3-.8-.2-2.8-.4-4.5-.5-2.9-.1-3-.3-3.3-5.3l-.3-5.2-8.2-.3c-8.1-.3-8.2-.3-8-2.9l.2-2.6-8.5.1c-4.6 0-8.5.3-8.5.8z"/></svg>