<?xml version="1.0" standalone="no"?>
<!DOCTYPE svg PUBLIC "-//W3C//DTD SVG 20010904//EN"
 "http://www.w3.org/TR/2001/REC-SVG-20010904/DTD/svg10.dtd">
<svg version="1.0" xmlns="http://www.w3.org/2000/svg"
 width="120.000000pt" height="120.000000pt" viewBox="0 0 120.000000 120.000000"
 preserveAspectRatio="xMidYMid meet">
<metadata>
Created by potrace 1.11, written by Peter Selinger 2001-2013
</metadata>
<g transform="translate(0.000000,120.000000) scale(0.100000,-0.100000)"
fill="#000000" stroke="none">
<path d="M219 1038 c-1 -4 -3 -26 -4 -48 -1 -22 -3 -44 -4 -50 0 -5 -11 -9
-23 -7 -21 2 -23 -3 -26 -50 -3 -57 -1 -56 -74 -56 -37 1 -38 -1 -39 -36 -1
-42 -1 -283 0 -293 1 -5 12 -8 26 -8 14 0 26 -4 26 -10 1 -5 3 -14 4 -20 1 -5
3 -14 4 -19 0 -5 12 -8 26 -7 22 3 25 0 24 -33 0 -76 -1 -76 87 -76 81 0 82 0
75 -42 0 -5 -25 -8 -53 -8 l-53 0 0 -82 c-1 -68 2 -83 14 -84 84 -5 144 -2
151 6 4 6 7 29 5 53 -2 23 0 43 4 43 3 1 40 2 81 3 l75 1 5 55 5 55 48 1 47 2
0 -54 c0 -36 4 -54 13 -55 6 -1 37 -3 67 -4 30 -1 62 -3 70 -4 12 -1 15 -12
14 -51 -2 -41 1 -50 14 -51 90 -5 152 -2 155 6 2 6 3 44 2 85 l0 75 -50 0
c-54 0 -69 9 -55 36 8 14 23 17 80 15 39 -1 73 0 78 3 4 4 7 27 7 54 0 26 2
46 5 45 14 -5 50 25 50 42 0 15 7 20 25 20 14 0 25 6 26 13 1 16 1 287 0 309
-1 13 -10 16 -51 14 -45 -3 -51 -1 -56 18 -3 12 -4 26 -3 32 6 34 -3 53 -29
59 -25 5 -28 9 -27 48 1 23 0 47 -2 53 -6 16 -162 15 -165 0 0 -6 -1 -18 -2
-26 -1 -12 -19 -16 -83 -18 l-82 -3 -3 -57 c-2 -45 -6 -56 -18 -53 -8 2 -28 4
-45 5 -29 1 -30 3 -33 53 l-3 52 -82 3 c-81 3 -82 3 -80 29 l2 26 -85 -1 c-46
0 -85 -3 -85 -8z"/>
</g>
</svg>
